# xmcd
#
# Track frame offsets: 
#        150
#        12851
#        25231
#        39334
#        52497
#        65814
#        77912
#        91286
#        104640
#        116515
#        130374
#        144717
#
# Disc length: 2115 seconds
#
# Revision: 0
# Processed by: cddbd v1.5.2PL0 Copyright (c) Steve Scherf et al.
# Submitted via: ExactAudioCopy v1.0b3
#
DISCID=af08410c
DTITLE=Louis Armstrong - Swing That Music
DYEAR=1948
DGENRE=Blues
TTITLE0=Swing That Music
TTITLE1=Dippermouth Blues (Sugar Poot Stomp)
TTITLE2=I've Got A Heart Full Of Rhythm
TTITLE3=On The Sunny Side Of The Street
TTITLE4=Srtuttin' With Some Barbecue
TTITLE5=When The Saints Go Marchin' In
TTITLE6=The Flat Foot Floogie
TTITLE7=Ain't Misshebavin'
TTITLE8=Jeepers Cheepers
TTITLE9=What Is This Thing Called Swing?
TTITLE10=Savoy Blues
TTITLE11=West End Blues
EXTD=
EXTT0=
EXTT1=
EXTT2=
EXTT3=
EXTT4=
EXTT5=
EXTT6=
EXTT7=
EXTT8=
EXTT9=
EXTT10=
EXTT11=
PLAYORDER=
